<mxfile host="Electron" modified="2023-12-25T20:01:16.886Z" agent="Mozilla/5.0 (Windows NT 10.0; Win64; x64) AppleWebKit/537.36 (KHTML, like Gecko) draw.io/22.0.3 Chrome/114.0.5735.289 Electron/25.8.4 Safari/537.36" etag="0VkZW303pIehQRoeORjM" version="22.0.3" type="device">
  <diagram name="第 1 页" id="pq7VFshpqVYQf46anXJH">
    <mxGraphModel dx="989" dy="577" grid="1" gridSize="10" guides="1" tooltips="1" connect="1" arrows="1" fold="1" page="1" pageScale="1" pageWidth="827" pageHeight="1169" math="0" shadow="0">
      <root>
        <mxCell id="0" />
        <mxCell id="1" parent="0" />
        <mxCell id="dZIbzJy0rgBnNaePtF7X-1" value="Position&lt;br&gt;点类" style="rounded=0;whiteSpace=wrap;html=1;fillColor=#dae8fc;strokeColor=#6c8ebf;" parent="1" vertex="1">
          <mxGeometry x="41" y="460" width="120" height="40" as="geometry" />
        </mxCell>
        <mxCell id="dZIbzJy0rgBnNaePtF7X-2" value="Box&lt;br&gt;盒子类" style="rounded=0;whiteSpace=wrap;html=1;fillColor=#dae8fc;strokeColor=#6c8ebf;" parent="1" vertex="1">
          <mxGeometry x="40" y="520" width="120" height="40" as="geometry" />
        </mxCell>
        <mxCell id="dZIbzJy0rgBnNaePtF7X-3" value="Element&lt;br&gt;渲染元素类" style="rounded=0;whiteSpace=wrap;html=1;fillColor=#fff2cc;strokeColor=#d6b656;" parent="1" vertex="1">
          <mxGeometry x="200" y="460" width="120" height="40" as="geometry" />
        </mxCell>
        <mxCell id="dZIbzJy0rgBnNaePtF7X-7" style="edgeStyle=orthogonalEdgeStyle;rounded=0;orthogonalLoop=1;jettySize=auto;html=1;fillColor=#ffe6cc;strokeColor=#d79b00;" parent="1" source="dZIbzJy0rgBnNaePtF7X-4" target="dZIbzJy0rgBnNaePtF7X-3" edge="1">
          <mxGeometry relative="1" as="geometry">
            <Array as="points">
              <mxPoint x="260" y="500" />
              <mxPoint x="260" y="500" />
            </Array>
          </mxGeometry>
        </mxCell>
        <mxCell id="dZIbzJy0rgBnNaePtF7X-4" value="ElementContainer&lt;br&gt;渲染元素容器" style="rounded=0;whiteSpace=wrap;html=1;fillColor=#f8cecc;strokeColor=#b85450;" parent="1" vertex="1">
          <mxGeometry x="200" y="520" width="120" height="40" as="geometry" />
        </mxCell>
        <mxCell id="dZIbzJy0rgBnNaePtF7X-18" style="edgeStyle=orthogonalEdgeStyle;rounded=0;orthogonalLoop=1;jettySize=auto;html=1;fillColor=#f8cecc;strokeColor=#b85450;" parent="1" source="dZIbzJy0rgBnNaePtF7X-8" target="dZIbzJy0rgBnNaePtF7X-15" edge="1">
          <mxGeometry relative="1" as="geometry">
            <Array as="points">
              <mxPoint x="380" y="860" />
              <mxPoint x="660" y="860" />
            </Array>
          </mxGeometry>
        </mxCell>
        <mxCell id="dZIbzJy0rgBnNaePtF7X-28" style="edgeStyle=orthogonalEdgeStyle;rounded=0;orthogonalLoop=1;jettySize=auto;html=1;fillColor=#f8cecc;strokeColor=#b85450;" parent="1" source="dZIbzJy0rgBnNaePtF7X-8" edge="1" target="dZIbzJy0rgBnNaePtF7X-25">
          <mxGeometry relative="1" as="geometry">
            <mxPoint x="520" y="730" as="targetPoint" />
            <Array as="points">
              <mxPoint x="380" y="800" />
              <mxPoint x="520" y="800" />
            </Array>
          </mxGeometry>
        </mxCell>
        <mxCell id="dZIbzJy0rgBnNaePtF7X-29" style="edgeStyle=orthogonalEdgeStyle;rounded=0;orthogonalLoop=1;jettySize=auto;html=1;fillColor=#f8cecc;strokeColor=#b85450;" parent="1" source="dZIbzJy0rgBnNaePtF7X-8" target="dZIbzJy0rgBnNaePtF7X-20" edge="1">
          <mxGeometry relative="1" as="geometry">
            <Array as="points">
              <mxPoint x="380" y="790" />
              <mxPoint x="380" y="790" />
            </Array>
          </mxGeometry>
        </mxCell>
        <mxCell id="dZIbzJy0rgBnNaePtF7X-30" style="edgeStyle=orthogonalEdgeStyle;rounded=0;orthogonalLoop=1;jettySize=auto;html=1;fillColor=#f8cecc;strokeColor=#b85450;" parent="1" source="dZIbzJy0rgBnNaePtF7X-8" target="dZIbzJy0rgBnNaePtF7X-27" edge="1">
          <mxGeometry relative="1" as="geometry">
            <Array as="points">
              <mxPoint x="380" y="800" />
              <mxPoint x="100" y="800" />
            </Array>
          </mxGeometry>
        </mxCell>
        <mxCell id="dZIbzJy0rgBnNaePtF7X-36" style="edgeStyle=orthogonalEdgeStyle;rounded=0;orthogonalLoop=1;jettySize=auto;html=1;fillColor=#f8cecc;strokeColor=#b85450;" parent="1" source="dZIbzJy0rgBnNaePtF7X-8" target="dZIbzJy0rgBnNaePtF7X-26" edge="1">
          <mxGeometry relative="1" as="geometry">
            <Array as="points">
              <mxPoint x="380" y="800" />
              <mxPoint x="240" y="800" />
            </Array>
          </mxGeometry>
        </mxCell>
        <mxCell id="dZIbzJy0rgBnNaePtF7X-38" style="edgeStyle=orthogonalEdgeStyle;rounded=0;orthogonalLoop=1;jettySize=auto;html=1;fillColor=#f8cecc;strokeColor=#b85450;endArrow=doubleBlock;endFill=1;" parent="1" source="dZIbzJy0rgBnNaePtF7X-8" target="dZIbzJy0rgBnNaePtF7X-9" edge="1">
          <mxGeometry relative="1" as="geometry">
            <Array as="points">
              <mxPoint x="380" y="860" />
              <mxPoint x="800" y="860" />
            </Array>
          </mxGeometry>
        </mxCell>
        <mxCell id="dZIbzJy0rgBnNaePtF7X-8" value="EMonophonic&lt;br&gt;单声部乐谱" style="rounded=0;whiteSpace=wrap;html=1;fillColor=#fff2cc;strokeColor=#d6b656;" parent="1" vertex="1">
          <mxGeometry x="320" y="880" width="120" height="40" as="geometry" />
        </mxCell>
        <mxCell id="dZIbzJy0rgBnNaePtF7X-14" style="edgeStyle=orthogonalEdgeStyle;rounded=0;orthogonalLoop=1;jettySize=auto;html=1;fillColor=#ffe6cc;strokeColor=#d79b00;" parent="1" source="dZIbzJy0rgBnNaePtF7X-9" target="dZIbzJy0rgBnNaePtF7X-10" edge="1">
          <mxGeometry relative="1" as="geometry">
            <Array as="points">
              <mxPoint x="800" y="670" />
              <mxPoint x="800" y="670" />
            </Array>
          </mxGeometry>
        </mxCell>
        <mxCell id="dZIbzJy0rgBnNaePtF7X-9" value="ELyricItem&lt;br&gt;歌词项目元素" style="rounded=0;whiteSpace=wrap;html=1;fillColor=#fff2cc;strokeColor=#d6b656;" parent="1" vertex="1">
          <mxGeometry x="740" y="680" width="120" height="40" as="geometry" />
        </mxCell>
        <mxCell id="dZIbzJy0rgBnNaePtF7X-10" value="EText&lt;br&gt;文本元素" style="rounded=0;whiteSpace=wrap;html=1;fillColor=#fff2cc;strokeColor=#d6b656;" parent="1" vertex="1">
          <mxGeometry x="740" y="600" width="120" height="40" as="geometry" />
        </mxCell>
        <mxCell id="dZIbzJy0rgBnNaePtF7X-33" style="edgeStyle=orthogonalEdgeStyle;rounded=0;orthogonalLoop=1;jettySize=auto;html=1;fillColor=#fff2cc;strokeColor=#d6b656;endArrow=open;endFill=0;" parent="1" source="dZIbzJy0rgBnNaePtF7X-15" target="dZIbzJy0rgBnNaePtF7X-32" edge="1">
          <mxGeometry relative="1" as="geometry">
            <Array as="points">
              <mxPoint x="660" y="740" />
              <mxPoint x="660" y="740" />
            </Array>
          </mxGeometry>
        </mxCell>
        <mxCell id="dZIbzJy0rgBnNaePtF7X-34" style="edgeStyle=orthogonalEdgeStyle;rounded=0;orthogonalLoop=1;jettySize=auto;html=1;entryX=0.75;entryY=1;entryDx=0;entryDy=0;fillColor=#f8cecc;strokeColor=#b85450;" parent="1" source="dZIbzJy0rgBnNaePtF7X-15" target="dZIbzJy0rgBnNaePtF7X-20" edge="1">
          <mxGeometry relative="1" as="geometry">
            <Array as="points">
              <mxPoint x="660" y="760" />
              <mxPoint x="411" y="760" />
            </Array>
          </mxGeometry>
        </mxCell>
        <mxCell id="dZIbzJy0rgBnNaePtF7X-35" style="edgeStyle=orthogonalEdgeStyle;rounded=0;orthogonalLoop=1;jettySize=auto;html=1;entryX=0.75;entryY=1;entryDx=0;entryDy=0;fillColor=#f8cecc;strokeColor=#b85450;" parent="1" source="dZIbzJy0rgBnNaePtF7X-15" target="dZIbzJy0rgBnNaePtF7X-25" edge="1">
          <mxGeometry relative="1" as="geometry">
            <Array as="points">
              <mxPoint x="660" y="760" />
              <mxPoint x="550" y="760" />
            </Array>
          </mxGeometry>
        </mxCell>
        <mxCell id="dZIbzJy0rgBnNaePtF7X-15" value="EAppog&lt;br&gt;倚音序列" style="rounded=0;whiteSpace=wrap;html=1;fillColor=#fff2cc;strokeColor=#d6b656;" parent="1" vertex="1">
          <mxGeometry x="600" y="780" width="120" height="40" as="geometry" />
        </mxCell>
        <mxCell id="dZIbzJy0rgBnNaePtF7X-17" style="edgeStyle=orthogonalEdgeStyle;rounded=0;orthogonalLoop=1;jettySize=auto;html=1;exitX=0.5;exitY=1;exitDx=0;exitDy=0;" parent="1" source="dZIbzJy0rgBnNaePtF7X-8" target="dZIbzJy0rgBnNaePtF7X-8" edge="1">
          <mxGeometry relative="1" as="geometry" />
        </mxCell>
        <mxCell id="dZIbzJy0rgBnNaePtF7X-23" style="edgeStyle=orthogonalEdgeStyle;rounded=0;orthogonalLoop=1;jettySize=auto;html=1;fillColor=#fff2cc;strokeColor=#d6b656;endArrow=open;endFill=0;" parent="1" source="dZIbzJy0rgBnNaePtF7X-20" target="dZIbzJy0rgBnNaePtF7X-22" edge="1">
          <mxGeometry relative="1" as="geometry">
            <Array as="points">
              <mxPoint x="381" y="660" />
              <mxPoint x="300" y="660" />
            </Array>
          </mxGeometry>
        </mxCell>
        <mxCell id="dZIbzJy0rgBnNaePtF7X-24" style="edgeStyle=orthogonalEdgeStyle;rounded=0;orthogonalLoop=1;jettySize=auto;html=1;fillColor=#f8cecc;strokeColor=#b85450;" parent="1" source="dZIbzJy0rgBnNaePtF7X-20" target="dZIbzJy0rgBnNaePtF7X-21" edge="1">
          <mxGeometry relative="1" as="geometry">
            <Array as="points">
              <mxPoint x="381" y="660" />
              <mxPoint x="460" y="660" />
            </Array>
          </mxGeometry>
        </mxCell>
        <mxCell id="dZIbzJy0rgBnNaePtF7X-20" value="ENote&lt;br&gt;音符元素" style="rounded=0;whiteSpace=wrap;html=1;fillColor=#fff2cc;strokeColor=#d6b656;" parent="1" vertex="1">
          <mxGeometry x="321" y="680" width="120" height="40" as="geometry" />
        </mxCell>
        <mxCell id="dZIbzJy0rgBnNaePtF7X-21" value="ENoteDot&lt;br&gt;音符点元素" style="rounded=0;whiteSpace=wrap;html=1;fillColor=#fff2cc;strokeColor=#d6b656;" parent="1" vertex="1">
          <mxGeometry x="400" y="600" width="120" height="40" as="geometry" />
        </mxCell>
        <mxCell id="dZIbzJy0rgBnNaePtF7X-22" value="ENoteCharacter&lt;br&gt;音符字符元素" style="rounded=0;whiteSpace=wrap;html=1;fillColor=#fff2cc;strokeColor=#d6b656;" parent="1" vertex="1">
          <mxGeometry x="240" y="600" width="120" height="40" as="geometry" />
        </mxCell>
        <mxCell id="dZIbzJy0rgBnNaePtF7X-25" value="EUnderline&lt;br&gt;下划线元素" style="rounded=0;whiteSpace=wrap;html=1;fillColor=#fff2cc;strokeColor=#d6b656;" parent="1" vertex="1">
          <mxGeometry x="460" y="680" width="120" height="40" as="geometry" />
        </mxCell>
        <mxCell id="dZIbzJy0rgBnNaePtF7X-26" value="ECurve&lt;br&gt;连音线元素" style="rounded=0;whiteSpace=wrap;html=1;fillColor=#fff2cc;strokeColor=#d6b656;" parent="1" vertex="1">
          <mxGeometry x="180" y="680" width="120" height="40" as="geometry" />
        </mxCell>
        <mxCell id="dZIbzJy0rgBnNaePtF7X-27" value="EBarline&lt;br&gt;小节线元素" style="rounded=0;whiteSpace=wrap;html=1;fillColor=#fff2cc;strokeColor=#d6b656;" parent="1" vertex="1">
          <mxGeometry x="40" y="680" width="120" height="40" as="geometry" />
        </mxCell>
        <mxCell id="dZIbzJy0rgBnNaePtF7X-32" value="EAppogTail&lt;br&gt;倚音尾巴元素" style="rounded=0;whiteSpace=wrap;html=1;fillColor=#fff2cc;strokeColor=#d6b656;" parent="1" vertex="1">
          <mxGeometry x="600" y="680" width="120" height="40" as="geometry" />
        </mxCell>
        <mxCell id="N3GNRhsNlXewQai63coo-2" value="" style="rounded=0;whiteSpace=wrap;html=1;fillColor=#fff2cc;strokeColor=#d6b656;" vertex="1" parent="1">
          <mxGeometry x="360" y="460" width="40" height="10" as="geometry" />
        </mxCell>
        <mxCell id="N3GNRhsNlXewQai63coo-3" style="edgeStyle=orthogonalEdgeStyle;rounded=0;orthogonalLoop=1;jettySize=auto;html=1;fillColor=#fff2cc;strokeColor=#d6b656;endArrow=open;endFill=0;" edge="1" parent="1" source="N3GNRhsNlXewQai63coo-4" target="N3GNRhsNlXewQai63coo-2">
          <mxGeometry relative="1" as="geometry">
            <Array as="points">
              <mxPoint x="380" y="480" />
              <mxPoint x="380" y="480" />
            </Array>
          </mxGeometry>
        </mxCell>
        <mxCell id="N3GNRhsNlXewQai63coo-4" value="" style="rounded=0;whiteSpace=wrap;html=1;fillColor=#fff2cc;strokeColor=#d6b656;" vertex="1" parent="1">
          <mxGeometry x="360" y="490" width="40" height="10" as="geometry" />
        </mxCell>
        <mxCell id="N3GNRhsNlXewQai63coo-6" value="含有一个" style="text;html=1;strokeColor=none;fillColor=none;align=left;verticalAlign=middle;whiteSpace=wrap;rounded=0;" vertex="1" parent="1">
          <mxGeometry x="402" y="460" width="90" height="40" as="geometry" />
        </mxCell>
        <mxCell id="N3GNRhsNlXewQai63coo-8" value="" style="rounded=0;whiteSpace=wrap;html=1;fillColor=#fff2cc;strokeColor=#d6b656;" vertex="1" parent="1">
          <mxGeometry x="360" y="510" width="40" height="10" as="geometry" />
        </mxCell>
        <mxCell id="N3GNRhsNlXewQai63coo-9" style="edgeStyle=orthogonalEdgeStyle;rounded=0;orthogonalLoop=1;jettySize=auto;html=1;fillColor=#ffe6cc;strokeColor=#d79b00;endArrow=classic;endFill=1;" edge="1" parent="1" source="N3GNRhsNlXewQai63coo-10" target="N3GNRhsNlXewQai63coo-8">
          <mxGeometry relative="1" as="geometry">
            <Array as="points">
              <mxPoint x="380" y="530" />
              <mxPoint x="380" y="530" />
            </Array>
          </mxGeometry>
        </mxCell>
        <mxCell id="N3GNRhsNlXewQai63coo-10" value="" style="rounded=0;whiteSpace=wrap;html=1;fillColor=#fff2cc;strokeColor=#d6b656;" vertex="1" parent="1">
          <mxGeometry x="360" y="540" width="40" height="10" as="geometry" />
        </mxCell>
        <mxCell id="N3GNRhsNlXewQai63coo-11" value="以数组或多个变量&lt;br&gt;的形式含有多个" style="text;html=1;strokeColor=none;fillColor=none;align=left;verticalAlign=middle;whiteSpace=wrap;rounded=0;" vertex="1" parent="1">
          <mxGeometry x="402" y="510" width="110" height="40" as="geometry" />
        </mxCell>
        <mxCell id="N3GNRhsNlXewQai63coo-12" value="" style="rounded=0;whiteSpace=wrap;html=1;fillColor=#fff2cc;strokeColor=#d6b656;" vertex="1" parent="1">
          <mxGeometry x="520" y="460" width="40" height="10" as="geometry" />
        </mxCell>
        <mxCell id="N3GNRhsNlXewQai63coo-13" style="edgeStyle=orthogonalEdgeStyle;rounded=0;orthogonalLoop=1;jettySize=auto;html=1;fillColor=#f8cecc;strokeColor=#b85450;endArrow=classic;endFill=1;" edge="1" parent="1" source="N3GNRhsNlXewQai63coo-14" target="N3GNRhsNlXewQai63coo-12">
          <mxGeometry relative="1" as="geometry">
            <Array as="points">
              <mxPoint x="540" y="480" />
              <mxPoint x="540" y="480" />
            </Array>
          </mxGeometry>
        </mxCell>
        <mxCell id="N3GNRhsNlXewQai63coo-14" value="" style="rounded=0;whiteSpace=wrap;html=1;fillColor=#fff2cc;strokeColor=#d6b656;" vertex="1" parent="1">
          <mxGeometry x="520" y="490" width="40" height="10" as="geometry" />
        </mxCell>
        <mxCell id="N3GNRhsNlXewQai63coo-15" value="以 ElementContainer&lt;br&gt;的形式含有多个" style="text;html=1;strokeColor=none;fillColor=none;align=left;verticalAlign=middle;whiteSpace=wrap;rounded=0;" vertex="1" parent="1">
          <mxGeometry x="562" y="460" width="130" height="40" as="geometry" />
        </mxCell>
        <mxCell id="N3GNRhsNlXewQai63coo-16" value="" style="rounded=0;whiteSpace=wrap;html=1;fillColor=#fff2cc;strokeColor=#d6b656;" vertex="1" parent="1">
          <mxGeometry x="520" y="510" width="40" height="10" as="geometry" />
        </mxCell>
        <mxCell id="N3GNRhsNlXewQai63coo-17" style="edgeStyle=orthogonalEdgeStyle;rounded=0;orthogonalLoop=1;jettySize=auto;html=1;fillColor=#f8cecc;strokeColor=#b85450;endArrow=doubleBlock;endFill=1;" edge="1" parent="1" source="N3GNRhsNlXewQai63coo-18" target="N3GNRhsNlXewQai63coo-16">
          <mxGeometry relative="1" as="geometry">
            <Array as="points">
              <mxPoint x="540" y="530" />
              <mxPoint x="540" y="530" />
            </Array>
          </mxGeometry>
        </mxCell>
        <mxCell id="N3GNRhsNlXewQai63coo-18" value="" style="rounded=0;whiteSpace=wrap;html=1;fillColor=#fff2cc;strokeColor=#d6b656;" vertex="1" parent="1">
          <mxGeometry x="520" y="540" width="40" height="10" as="geometry" />
        </mxCell>
        <mxCell id="N3GNRhsNlXewQai63coo-19" value="以嵌套二维 ElementContainer&lt;br&gt;的形式含有多个" style="text;html=1;strokeColor=none;fillColor=none;align=left;verticalAlign=middle;whiteSpace=wrap;rounded=0;" vertex="1" parent="1">
          <mxGeometry x="562" y="510" width="168" height="40" as="geometry" />
        </mxCell>
        <mxCell id="N3GNRhsNlXewQai63coo-20" value="含有多个" style="text;html=1;strokeColor=none;fillColor=none;align=left;verticalAlign=middle;whiteSpace=wrap;rounded=0;" vertex="1" parent="1">
          <mxGeometry x="267" y="490" width="73" height="40" as="geometry" />
        </mxCell>
      </root>
    </mxGraphModel>
  </diagram>
</mxfile>
